# xmcd
#
# Track frame offsets:
#	150
#	10868
#	45990
#	100214
#	134113
#	164966
#	209935
#	225287
#
# Disc length: 3816 seconds
#
# Revision: 0
# Processed by: cddbd v1.5.2PL0 Copyright (c) Steve Scherf et al.
# Submitted via: audiograbber 1.83.01
#
DISCID=700ee608
DTITLE=Grateful Dead - 93-05-27 Cal Expo Amphitheatre, Sacramento CA
DYEAR=1900
DGENRE=
TTITLE0=Tuning
TTITLE1=Picasso Moon
TTITLE2=Fire On The Mountain
TTITLE3=Wave To The Wind
TTITLE4=Cassidy
TTITLE5=Uncle John's Band
TTITLE6=Cassidy
TTITLE7=Drums
EXTD=
EXTT0=
EXTT1=
EXTT2=
EXTT3=
EXTT4=
EXTT5=
EXTT6=
EXTT7=
PLAYORDER=
